<svg id="Layer_1" xmlns="http://www.w3.org/2000/svg" viewBox="0 0 512 512"><style>.st0{fill:#0496a7}</style><ellipse class="st0" cx="159.77" cy="394.02" rx="38.71" ry="39.43"/><path class="st0" d="M352.77 78.62c-21.38 0-38.71 17.65-38.71 39.43V181.31c0 32.02-26.05 58.06-58.06 58.06s-58.06-26.05-58.06-58.06V118.05c0-21.77-17.33-39.43-38.71-39.43s-38.71 17.65-38.71 39.43V181.31c0 74.7 60.78 135.48 135.48 135.48 20.62 0 40.18-4.64 57.7-12.92-3.21 29-27.86 51.63-57.7 51.63-21.38 0-38.71 17.33-38.71 38.71s17.33 38.71 38.71 38.71c74.7 0 135.48-60.78 135.48-135.48V118.06c0-21.79-17.33-39.44-38.71-39.44z"/></svg>