<!DOCTYPE svg PUBLIC "-//W3C//DTD SVG 20010904//EN" "http://www.w3.org/TR/2001/REC-SVG-20010904/DTD/svg10.dtd">
<svg version="1.0" xmlns="http://www.w3.org/2000/svg" width="1024px" height="1024px" viewBox="0 0 10240 10240" preserveAspectRatio="xMidYMid meet">
<g id="layer101" fill="#ae0909" stroke="none">
 <path d="M0 5120 l0 -5120 5120 0 5120 0 0 5120 0 5120 -5120 0 -5120 0 0 -5120z"/>
 </g>
<g id="layer102" fill="#ba2e2e" stroke="none">
 <path d="M0 5120 l0 -5120 5120 0 5120 0 0 5120 0 5120 -5120 0 -5120 0 0 -5120z m1584 978 c9 -18 25 -46 35 -63 16 -28 66 -117 98 -175 8 -14 22 -38 32 -55 10 -16 33 -57 51 -90 18 -33 42 -73 52 -90 10 -16 21 -37 25 -45 3 -8 14 -26 23 -40 10 -14 32 -52 50 -85 18 -33 42 -76 53 -95 11 -19 28 -51 39 -70 11 -19 27 -48 37 -65 10 -16 33 -57 51 -90 18 -33 36 -64 40 -70 4 -5 22 -37 40 -70 39 -70 57 -102 108 -193 21 -37 41 -74 45 -82 4 -8 13 -24 19 -35 28 -44 75 -121 82 -135 4 -8 12 -24 19 -35 7 -11 32 -56 57 -100 24 -44 50 -89 57 -100 6 -11 21 -38 33 -60 11 -22 29 -53 39 -70 10 -16 30 -52 45 -80 16 -27 33 -57 40 -65 7 -8 24 -37 37 -65 14 -27 40 -76 58 -107 l33 -58 -174 0 -173 0 -104 213 c-209 427 -493 1002 -502 1017 -4 8 -16 31 -25 50 -8 19 -19 42 -24 50 -27 47 -530 1067 -530 1074 0 3 -11 24 -25 46 -14 22 -25 44 -25 50 0 6 -11 28 -25 50 -14 22 -25 42 -25 45 0 15 319 -278 334 -307z m798 -158 c4 0 31 -15 60 -33 29 -19 60 -37 68 -41 16 -7 20 -10 133 -78 43 -27 80 -48 83 -48 3 0 20 -10 37 -22 17 -13 40 -27 51 -33 10 -5 24 -19 30 -30 6 -11 25 -42 42 -70 16 -27 33 -57 37 -65 4 -8 16 -28 27 -45 11 -16 23 -37 27 -45 4 -8 21 -37 38 -65 17 -27 35 -57 38 -65 4 -8 11 -22 17 -30 34 -53 110 -181 110 -185 0 -4 54 -94 110 -185 5 -8 17 -29 26 -47 9 -18 22 -37 30 -44 8 -6 14 -16 14 -20 0 -5 18 -38 40 -73 22 -35 40 -66 40 -69 0 -4 16 -31 35 -61 19 -30 35 -58 35 -61 0 -4 11 -21 24 -38 13 -18 38 -59 56 -92 18 -32 47 -82 65 -110 17 -27 35 -57 38 -65 7 -16 20 -38 52 -85 11 -16 27 -43 36 -60 9 -16 26 -46 38 -65 11 -19 24 -42 28 -50 4 -8 21 -37 38 -65 59 -93 80 -85 -224 -85 l-269 0 -275 548 c-151 301 -397 790 -546 1087 -149 297 -271 541 -271 543 0 1 17 -9 37 -23 21 -14 41 -25 45 -25z m3496 -206 c-3 -152 -4 -157 -25 -165 l-23 -8 0 164 0 165 25 0 26 0 -3 -156z m142 42 c0 -91 3 -116 16 -127 11 -9 20 -10 32 -3 17 11 122 210 122 232 0 7 13 12 30 12 l30 0 -2 -167 -2 -168 -6 119 c-4 97 -8 121 -22 130 -13 8 -23 5 -43 -14 -14 -13 -25 -28 -25 -34 0 -5 -19 -49 -42 -98 -41 -83 -45 -87 -75 -88 l-33 0 0 160 c0 100 4 160 10 160 6 0 10 -45 10 -114z m474 -175 c8 -7 33 -16 57 -20 36 -7 23 -9 -68 -10 -62 -1 -113 2 -113 7 0 4 15 7 34 8 62 1 66 11 68 168 l2 141 3 -141 c3 -105 7 -145 17 -153z m326 282 c-76 -4 -100 -23 -100 -82 0 -51 14 -61 87 -61 35 0 63 -4 63 -10 0 -5 -23 -10 -52 -10 -64 0 -98 -26 -98 -76 0 -43 20 -56 98 -64 l67 -7 -92 -2 -93 -1 0 160 0 160 93 -2 c76 -2 81 -2 27 -5z m212 -100 c6 -7 19 -13 29 -13 11 0 19 -4 19 -10 0 -5 -8 -10 -18 -10 -31 0 -42 -22 -42 -81 0 -69 12 -81 85 -87 47 -4 57 -1 79 21 17 17 26 37 26 58 0 40 -35 89 -63 89 -12 0 -28 4 -35 9 -11 6 -9 9 7 14 11 2 36 30 56 61 19 31 42 56 51 56 16 0 9 -20 -27 -72 -25 -34 -24 -53 4 -73 19 -13 22 -24 22 -86 0 -51 -4 -72 -15 -79 -8 -5 -57 -10 -107 -10 l-93 0 2 163 c1 89 3 140 5 112 3 -27 9 -55 15 -62z m357 76 c15 -35 45 -49 101 -49 57 0 90 16 103 50 6 17 17 30 25 30 9 0 10 -5 2 -19 -5 -11 -10 -30 -10 -43 0 -13 -7 -32 -15 -42 -8 -11 -15 -30 -15 -42 0 -13 -4 -26 -10 -29 -5 -3 -10 -21 -10 -38 0 -18 -7 -41 -15 -51 -8 -11 -15 -28 -15 -38 0 -14 -8 -18 -38 -18 l-38 0 -18 63 c-9 34 -24 77 -32 95 -8 18 -14 41 -14 50 0 10 -4 22 -9 28 -11 12 -22 84 -13 84 4 0 13 -14 21 -31z m466 24 c-48 -3 -65 -9 -87 -30 -27 -25 -28 -31 -28 -121 0 -51 5 -102 10 -113 18 -33 68 -52 119 -45 41 6 43 5 26 -9 -27 -19 -86 -19 -129 2 -43 20 -50 52 -44 197 4 119 10 126 118 124 73 -2 73 -2 15 -5z m281 -284 c8 -6 31 -13 50 -14 19 -1 38 -5 41 -9 3 -3 -47 -6 -113 -5 -95 1 -110 3 -75 10 70 14 71 15 73 173 l2 141 3 -141 c3 -112 7 -145 19 -155z m211 38 c-1 -45 -3 -5 -3 88 0 94 2 130 3 82 2 -48 2 -125 0 -170z m296 218 c9 -20 17 -45 17 -55 0 -11 4 -28 9 -38 15 -31 41 -119 41 -140 0 -12 5 -24 10 -27 15 -9 12 -25 -5 -25 -8 0 -15 8 -15 19 0 10 -7 32 -15 47 -8 16 -15 39 -15 51 0 12 -4 25 -10 28 -5 3 -10 22 -10 40 0 24 -9 45 -28 67 -32 35 -62 34 -62 -4 0 -13 -6 -43 -14 -68 -8 -25 -23 -72 -32 -105 -20 -68 -44 -104 -44 -67 0 12 4 30 9 40 13 28 41 118 41 136 0 9 4 24 10 34 5 9 14 36 20 60 10 39 13 42 44 42 27 0 35 -6 49 -35z m312 28 c-51 -3 -73 -8 -82 -20 -16 -21 -17 -95 -1 -111 7 -7 38 -12 70 -12 32 0 58 -4 58 -10 0 -6 -27 -10 -60 -10 -68 0 -80 -12 -80 -79 0 -51 21 -64 101 -59 32 1 59 0 59 -4 0 -5 -43 -8 -95 -8 l-95 0 0 160 0 160 98 -2 c84 -2 87 -2 27 -5z m-5659 -338 c16 -8 37 -15 46 -15 9 0 20 -4 23 -10 3 -5 17 -10 29 -10 13 0 37 -7 52 -15 16 -8 39 -15 51 -15 12 0 24 -4 27 -9 3 -5 18 -11 33 -14 30 -5 87 -24 115 -38 10 -5 24 -9 33 -9 8 0 29 -6 47 -14 18 -8 74 -26 123 -41 50 -15 99 -31 110 -35 11 -5 45 -16 75 -25 30 -10 70 -24 88 -31 18 -8 39 -14 47 -14 36 0 70 -30 101 -89 16 -30 140 -238 174 -291 5 -8 20 -32 32 -54 13 -21 28 -46 33 -55 9 -14 28 -46 82 -136 7 -11 15 -27 19 -35 4 -8 17 -28 28 -45 23 -33 41 -62 53 -85 4 -8 29 -50 55 -92 26 -43 48 -80 48 -83 0 -4 53 -94 110 -185 5 -8 17 -29 26 -47 9 -18 22 -37 30 -44 8 -6 14 -15 14 -20 0 -5 23 -45 50 -89 28 -44 50 -82 50 -85 0 -3 -200 -5 -444 -5 l-444 0 -26 53 c-15 28 -35 66 -45 82 -10 17 -33 57 -51 90 -18 33 -42 76 -53 95 -11 19 -37 68 -59 109 -35 66 -60 112 -118 216 -9 17 -32 57 -50 90 -18 33 -41 74 -51 90 -10 17 -32 56 -49 88 -17 32 -40 72 -50 90 -19 30 -22 37 -35 70 -3 6 -11 21 -17 32 -30 45 -62 102 -97 169 -21 39 -47 87 -58 106 -11 19 -35 62 -53 95 -18 33 -41 74 -51 90 -10 17 -26 46 -35 65 -10 19 -28 52 -41 72 -33 54 -29 60 23 33z m5378 -320 c12 -8 45 -18 72 -21 27 -3 58 -9 69 -14 11 -4 31 -12 45 -18 55 -22 105 -70 131 -123 42 -86 49 -119 49 -234 0 -93 -5 -130 -26 -190 -4 -10 -16 -31 -48 -78 -22 -33 -116 -97 -144 -97 -10 0 -23 -5 -30 -12 -11 -11 -92 -21 -297 -36 -154 -12 -195 -53 -195 -197 0 -99 19 -142 81 -181 l39 -24 297 0 298 0 0 -107 0 -108 -225 3 c-224 3 -417 16 -455 31 -106 42 -181 101 -209 166 -37 82 -41 104 -41 205 0 185 58 305 172 355 21 9 47 22 58 28 29 16 112 27 252 35 76 4 127 12 135 20 6 6 18 12 26 12 8 0 26 9 40 21 88 69 81 253 -13 325 -32 24 -41 26 -89 20 -39 -4 -62 -2 -82 9 -23 12 -74 15 -251 15 l-223 0 0 105 0 105 270 0 c223 0 275 -3 294 -15z m-2318 -10 c16 -8 36 -15 46 -15 9 0 40 -12 68 -27 58 -30 94 -75 121 -156 24 -69 26 -247 3 -320 -20 -65 -42 -114 -53 -121 -20 -13 -22 -59 -4 -80 22 -25 37 -55 58 -116 16 -49 22 -275 6 -284 -4 -3 -11 -24 -15 -46 -8 -52 -21 -74 -76 -133 -40 -43 -111 -87 -140 -87 -5 0 -18 -4 -28 -10 -26 -14 -187 -28 -360 -32 l-152 -3 0 108 0 107 215 0 c193 0 220 2 254 19 20 11 44 27 51 36 39 47 52 165 26 240 -29 84 -109 119 -273 120 l-93 0 0 100 0 100 90 -3 c93 -4 178 14 228 47 36 25 62 94 62 166 0 105 -39 165 -130 198 -37 14 -83 17 -238 17 l-192 0 0 95 0 95 249 0 c201 0 254 -3 277 -15z m1214 0 c14 -8 35 -14 47 -15 29 0 117 -47 149 -79 37 -36 74 -97 74 -120 0 -11 5 -23 10 -26 15 -9 13 -888 -1 -934 -20 -61 -33 -83 -74 -125 -100 -103 -210 -124 -645 -126 l-255 -1 -3 720 -2 721 337 0 c274 -1 343 -3 363 -15z"/>
 <path d="M7433 5789 c-12 -12 -8 -69 7 -104 5 -11 13 -33 18 -50 19 -66 73 -15 93 88 6 35 6 54 -2 63 -14 17 -100 19 -116 3z"/>
 <path d="M7122 5024 l-22 -15 0 -493 c0 -369 3 -495 12 -504 8 -8 64 -12 188 -12 186 0 216 6 272 57 53 48 53 50 53 458 l0 380 -30 44 c-32 46 -52 60 -130 85 -70 23 -311 23 -343 0z"/>
 </g>
<g id="layer103" fill="#c04141" stroke="none">
 <path d="M0 5120 l0 -5120 5120 0 5120 0 0 5120 0 5120 -5120 0 -5120 0 0 -5120z m1457 1117 c88 -76 138 -135 166 -197 4 -8 15 -28 25 -45 19 -31 43 -73 102 -180 18 -33 36 -64 40 -70 4 -5 21 -35 38 -65 16 -30 69 -122 116 -204 47 -82 86 -150 86 -152 0 -3 11 -21 23 -42 13 -20 39 -64 57 -97 18 -33 41 -73 50 -90 9 -16 32 -57 50 -90 18 -33 36 -64 40 -70 8 -11 47 -81 87 -154 14 -25 46 -81 72 -125 43 -73 89 -154 128 -226 8 -14 22 -38 32 -55 10 -16 33 -57 51 -90 18 -33 41 -73 51 -90 10 -16 24 -41 32 -55 35 -65 82 -148 99 -175 10 -16 21 -37 25 -45 4 -8 22 -39 40 -67 l34 -53 -183 0 -183 0 -19 38 c-10 20 -23 46 -29 57 -19 36 -649 1314 -816 1655 -4 8 -16 31 -26 50 -31 61 -37 72 -116 230 -166 335 -289 587 -289 595 0 4 26 -16 58 -46 32 -30 103 -94 159 -142z m876 -259 c18 -13 45 -30 62 -39 16 -9 46 -26 65 -38 19 -11 42 -24 50 -28 8 -3 38 -21 65 -38 28 -17 57 -34 65 -38 8 -4 29 -16 45 -27 17 -11 37 -23 45 -27 45 -21 107 -66 120 -87 16 -26 157 -264 175 -294 6 -9 26 -44 45 -77 19 -33 42 -72 50 -86 16 -28 116 -195 130 -219 5 -8 31 -51 57 -95 27 -44 53 -89 60 -100 7 -11 15 -27 19 -35 4 -8 29 -50 56 -93 26 -43 48 -80 48 -83 0 -2 29 -51 65 -109 36 -57 65 -108 65 -111 0 -4 11 -22 25 -40 14 -18 25 -35 25 -39 0 -3 23 -42 50 -86 28 -44 50 -82 50 -85 0 -3 45 -81 90 -154 5 -8 27 -45 49 -83 l40 -67 -281 2 -281 3 -549 1094 c-301 601 -548 1095 -548 1097 0 9 14 3 43 -18z m3545 -245 l2 -173 -25 0 -25 0 0 176 0 175 23 -3 c22 -3 22 -5 25 -175z m150 50 c2 -86 6 -124 16 -132 18 -15 27 -4 95 130 59 116 76 137 105 126 14 -6 16 -28 16 -177 0 -144 -2 -170 -15 -170 -12 0 -15 17 -17 88 -1 48 -2 100 -2 117 -1 40 -28 44 -52 8 -10 -15 -39 -68 -64 -118 -44 -87 -46 -90 -82 -93 l-38 -3 0 169 c0 93 3 172 7 176 21 20 28 -9 31 -121z m462 -27 c0 -164 3 -171 69 -160 37 6 41 5 41 -15 0 -20 -4 -21 -121 -21 -109 0 -120 2 -117 18 3 12 13 17 40 17 20 0 40 3 44 7 4 5 6 63 5 131 -2 120 9 185 29 172 6 -4 10 -65 10 -149z m389 141 c18 -22 -29 -41 -83 -34 -51 7 -66 -7 -66 -59 0 -45 26 -64 87 -64 40 0 53 -4 53 -15 0 -11 -12 -15 -52 -15 -62 0 -88 -19 -88 -66 0 -43 12 -49 90 -49 51 0 65 -3 65 -15 0 -12 -18 -16 -88 -18 -57 -2 -94 1 -103 9 -19 15 -20 309 -2 327 17 17 172 16 187 -1z m151 -52 c0 -43 4 -56 19 -65 41 -22 69 -12 103 36 63 87 74 98 93 91 15 -6 15 -10 4 -23 -13 -16 -29 -41 -50 -82 -11 -19 -9 -26 10 -46 19 -20 22 -32 19 -97 -3 -67 -5 -75 -28 -86 -14 -7 -62 -13 -112 -13 l-88 0 0 168 c0 93 3 172 6 175 15 15 24 -7 24 -58z m365 23 l20 -43 70 0 c78 -1 105 13 105 52 0 26 25 42 41 26 7 -7 5 -22 -4 -44 -8 -19 -27 -74 -42 -124 -15 -49 -31 -99 -36 -110 -4 -11 -9 -29 -11 -40 -2 -15 -12 -21 -41 -23 -45 -4 -67 11 -60 38 3 11 1 26 -4 33 -9 11 -21 47 -59 177 -9 30 -20 62 -25 71 -4 9 -5 20 -2 23 15 15 30 3 48 -36z m523 28 c14 -15 -22 -30 -75 -31 -54 -1 -59 -3 -80 -34 -45 -67 -24 -220 32 -241 35 -13 78 -13 93 2 9 9 13 7 18 -6 10 -25 -12 -36 -74 -36 -39 0 -62 6 -83 21 l-30 21 3 136 3 136 35 24 c30 21 43 23 93 19 32 -3 61 -8 65 -11z m212 -140 c0 -161 3 -169 63 -159 33 5 37 3 37 -16 0 -20 -4 -21 -121 -21 -109 0 -120 2 -117 18 3 13 13 17 43 17 65 0 65 1 65 159 0 78 3 146 6 149 18 18 24 -17 24 -147z m230 -27 c0 -144 -2 -169 -15 -169 -13 0 -15 25 -15 168 0 93 3 172 6 175 19 18 24 -20 24 -174z m276 164 c3 -10 10 -26 15 -35 5 -10 9 -27 9 -39 0 -11 5 -30 12 -42 6 -12 15 -35 19 -52 13 -51 36 -129 44 -147 5 -14 2 -18 -14 -18 -12 0 -23 6 -25 13 -2 6 -9 32 -16 57 -7 25 -19 62 -26 83 -8 20 -14 48 -14 60 0 13 -11 34 -25 47 -20 19 -27 21 -40 10 -8 -7 -15 -22 -15 -33 0 -23 -27 -123 -41 -149 -5 -10 -9 -26 -9 -37 0 -32 -11 -51 -29 -51 -28 0 -30 9 -10 50 11 21 19 45 19 52 0 8 11 47 24 88 13 41 27 88 31 105 9 42 23 55 57 55 19 0 31 -6 34 -17z m382 -5 c-3 -21 -8 -23 -73 -23 l-70 -1 -1 -49 c-1 -28 3 -56 9 -62 5 -8 33 -13 68 -13 46 0 59 -3 59 -15 0 -12 -13 -15 -59 -15 -70 0 -83 -12 -79 -72 l3 -43 73 3 c67 4 72 2 72 -17 0 -20 -5 -21 -93 -21 -59 0 -97 4 -105 12 -8 8 -12 59 -12 163 0 104 4 155 12 163 8 8 46 12 106 12 91 0 93 -1 90 -22z m-5633 -365 c61 -20 126 -41 145 -48 19 -7 53 -18 75 -24 22 -7 56 -18 75 -26 19 -7 62 -21 95 -31 33 -10 64 -22 69 -26 6 -4 20 -8 33 -8 13 0 31 -4 41 -9 29 -15 109 -42 118 -39 5 1 23 -6 41 -15 18 -9 41 -17 52 -17 11 0 23 -4 26 -10 3 -5 16 -10 28 -10 41 0 83 -37 127 -111 25 -41 50 -83 57 -94 7 -11 16 -27 20 -35 4 -8 39 -67 78 -130 39 -63 74 -122 78 -130 4 -8 39 -67 78 -130 39 -63 81 -133 93 -155 13 -22 49 -82 80 -133 31 -51 56 -94 56 -97 0 -3 125 -210 160 -265 5 -8 19 -31 30 -50 11 -19 31 -53 45 -75 13 -22 24 -43 25 -47 0 -5 -202 -8 -449 -8 l-449 0 -16 33 c-10 17 -35 64 -57 102 -21 39 -44 79 -50 90 -5 11 -15 29 -22 40 -14 24 -82 146 -127 230 -29 55 -66 121 -110 200 -9 17 -32 57 -50 90 -18 33 -41 74 -50 90 -46 82 -81 146 -110 200 -18 33 -36 65 -40 70 -4 6 -24 42 -45 80 -34 63 -65 121 -115 210 -9 17 -32 57 -50 90 -18 33 -41 74 -50 90 -91 164 -90 161 -62 150 9 -3 67 -22 127 -42z m2860 -283 c3 -5 25 -10 47 -10 83 0 197 -49 248 -107 56 -64 70 -119 70 -269 0 -137 -6 -166 -51 -259 -16 -33 -29 -63 -29 -67 0 -4 13 -26 29 -50 38 -58 43 -82 48 -228 7 -186 -17 -269 -99 -345 -51 -47 -72 -60 -136 -81 -26 -8 -54 -18 -62 -21 -8 -2 -46 -7 -85 -10 -38 -2 -74 -8 -79 -14 -6 -5 -79 -9 -163 -9 l-153 0 -10 26 c-11 28 -14 163 -4 188 5 14 34 16 214 16 184 0 212 2 252 20 55 24 72 43 92 100 20 58 20 99 0 161 -23 71 -66 103 -157 119 -40 6 -102 10 -140 8 l-67 -3 0 108 0 107 98 0 c170 1 236 32 265 123 21 66 21 102 2 158 -20 55 -49 87 -102 110 -35 15 -72 18 -244 19 -112 0 -205 3 -208 6 -11 11 -13 159 -2 187 l11 27 204 0 c126 0 207 -4 211 -10z m1201 -1 c3 -6 28 -9 58 -8 28 2 61 -2 73 -9 12 -7 28 -12 36 -12 30 0 112 -44 154 -83 24 -22 53 -61 64 -86 10 -25 26 -58 34 -74 12 -22 14 -100 15 -440 0 -400 0 -414 -22 -477 -12 -36 -37 -86 -55 -112 -34 -48 -119 -108 -151 -108 -10 0 -22 -4 -28 -10 -5 -5 -54 -15 -109 -21 -55 -6 -109 -15 -120 -20 -11 -5 -135 -8 -275 -7 l-255 3 -3 724 c-1 526 1 728 9 737 15 18 564 21 575 3z m1239 -8 c3 -6 27 -13 53 -17 217 -31 322 -176 310 -426 -3 -57 -11 -116 -18 -133 -7 -16 -19 -45 -27 -63 -19 -43 -81 -106 -125 -125 -80 -37 -116 -49 -153 -52 -261 -17 -306 -22 -345 -41 -36 -19 -73 -71 -66 -96 2 -10 0 -21 -5 -24 -12 -7 -11 -81 2 -129 14 -50 64 -100 114 -114 25 -7 148 -11 323 -11 l283 0 -3 -112 -3 -113 -225 -3 c-124 -1 -234 2 -245 7 -11 5 -65 14 -120 20 -55 6 -104 16 -109 21 -6 6 -18 10 -28 10 -25 0 -86 40 -130 86 -32 34 -56 76 -83 149 -4 11 -7 72 -7 135 0 115 3 130 48 228 35 76 152 153 252 167 27 3 62 13 77 21 20 10 51 13 119 9 179 -9 246 44 241 195 -3 93 -14 120 -61 157 -34 25 -44 28 -105 26 -38 -2 -71 2 -74 7 -4 6 -96 10 -235 10 l-229 0 -3 106 c-2 58 -1 108 1 110 9 9 570 4 576 -5z"/>
 <path d="M7048 5739 c-14 -8 -18 -23 -18 -68 0 -35 5 -62 13 -68 6 -5 39 -9 72 -8 55 0 60 2 77 31 21 36 14 68 -22 104 -22 22 -91 27 -122 9z"/>
 <path d="M7442 5788 c-17 -17 -15 -45 7 -106 20 -59 34 -77 50 -67 16 9 39 67 46 119 6 38 4 46 -13 55 -27 15 -75 14 -90 -1z"/>
 <path d="M7124 5016 c-18 -14 -19 -33 -22 -497 -2 -440 -1 -483 14 -500 15 -17 34 -19 179 -19 156 0 163 1 216 28 33 16 63 41 77 63 l23 36 0 386 c0 424 0 423 -61 467 -51 36 -124 50 -271 50 -101 0 -140 -4 -155 -14z"/>
 </g>
<g id="layer104" fill="#c65252" stroke="none">
 <path d="M0 5120 l0 -5120 5120 0 5120 0 0 5120 0 5120 -5120 0 -5120 0 0 -5120z m1281 1277 c41 -40 263 -236 279 -247 4 -3 22 -32 40 -65 18 -33 38 -66 43 -74 15 -18 34 -50 47 -81 6 -14 22 -39 36 -57 13 -17 24 -38 24 -45 0 -8 4 -18 9 -23 5 -6 23 -37 41 -70 18 -33 43 -74 56 -92 13 -17 24 -37 24 -43 0 -6 11 -28 25 -50 14 -22 25 -42 25 -45 0 -3 11 -22 23 -43 13 -20 39 -64 57 -97 59 -106 66 -119 103 -177 21 -31 37 -61 37 -66 0 -5 14 -28 30 -50 17 -23 30 -47 30 -53 0 -6 10 -25 23 -42 26 -38 44 -67 52 -87 8 -20 17 -36 47 -90 13 -25 40 -72 58 -105 18 -33 44 -77 57 -97 12 -21 23 -40 23 -43 0 -3 12 -24 27 -48 15 -23 40 -67 56 -97 15 -30 35 -62 43 -71 8 -8 14 -20 14 -26 0 -5 14 -29 30 -51 17 -23 30 -46 30 -52 0 -6 18 -37 40 -69 22 -32 40 -65 40 -73 0 -8 4 -18 9 -24 5 -5 23 -36 41 -69 19 -33 41 -73 51 -90 10 -16 25 -42 33 -57 l14 -28 -183 0 -183 0 -250 503 c-137 276 -268 540 -291 587 -23 47 -45 92 -50 100 -5 8 -62 123 -126 255 -125 257 -224 458 -243 490 -6 11 -52 104 -102 207 -51 104 -96 190 -101 194 -5 3 -9 13 -9 23 0 10 -11 35 -25 55 -14 20 -25 43 -25 50 0 7 -9 25 -20 39 -11 14 -20 32 -20 40 0 8 -11 31 -25 51 -42 63 -26 64 36 3z m1059 -422 c22 -14 44 -25 50 -25 5 0 40 -21 77 -46 37 -25 77 -50 88 -55 11 -5 27 -13 35 -19 61 -39 166 -100 173 -100 33 0 101 -83 159 -191 8 -13 40 -68 73 -122 80 -132 103 -169 111 -187 4 -8 19 -33 33 -55 34 -53 45 -73 70 -120 11 -22 36 -64 56 -93 19 -30 35 -57 35 -61 0 -4 9 -16 20 -26 11 -10 20 -25 20 -33 0 -8 23 -48 50 -89 28 -40 50 -80 50 -87 0 -7 7 -19 15 -26 8 -7 15 -17 15 -22 0 -5 14 -30 32 -55 17 -25 45 -74 63 -107 17 -34 48 -86 67 -116 19 -30 44 -71 54 -90 11 -19 40 -68 64 -108 54 -88 78 -128 107 -181 22 -40 58 -95 89 -139 l17 -22 -289 2 -288 3 -38 70 c-21 39 -42 81 -48 95 -5 14 -15 33 -20 43 -19 33 -29 53 -105 207 -41 85 -82 166 -90 180 -7 14 -20 39 -28 55 -7 17 -18 39 -25 50 -6 11 -45 90 -87 175 -42 85 -87 173 -100 195 -14 22 -30 51 -36 65 -15 33 -217 441 -228 460 -5 8 -57 112 -115 230 -59 118 -111 222 -115 230 -18 31 -61 126 -61 133 0 11 8 9 50 -18z m3538 -239 c3 -176 -1 -196 -40 -196 -14 0 -18 5 -14 16 3 9 6 92 6 186 l0 169 23 -3 c22 -3 22 -5 25 -172z m152 45 c3 -78 9 -126 16 -128 15 -5 39 31 100 152 46 92 53 100 82 103 l32 3 0 -180 c0 -159 -7 -211 -24 -183 -2 4 -6 59 -7 120 -5 171 -24 169 -114 -10 -54 -108 -74 -130 -102 -112 -16 10 -18 32 -21 188 -2 165 -1 177 15 174 16 -3 19 -19 23 -127z m460 -14 c0 -165 7 -181 71 -171 46 8 68 -15 40 -40 -15 -14 -36 -16 -127 -14 l-109 3 -3 29 c-3 28 -2 29 31 23 57 -9 61 -2 58 126 -3 130 5 187 25 187 11 0 14 -28 14 -143z m399 129 c20 -24 -13 -39 -74 -34 -61 5 -74 -3 -79 -49 -4 -45 28 -73 86 -73 36 0 48 -4 48 -15 0 -11 -12 -15 -48 -15 -58 0 -83 -16 -88 -57 -5 -44 16 -57 85 -54 68 2 93 -15 62 -43 -15 -14 -35 -16 -107 -14 l-89 3 -3 169 c-2 116 1 173 9 182 16 20 182 20 198 0z m143 -43 c3 -51 6 -59 30 -73 36 -20 50 -11 108 68 36 49 51 61 73 62 15 0 27 -3 27 -6 0 -3 -13 -22 -29 -42 -36 -46 -50 -99 -27 -108 9 -3 16 -17 16 -29 0 -13 5 -27 10 -30 13 -8 13 -52 0 -60 -6 -4 -10 -16 -8 -27 2 -16 -8 -27 -42 -45 -37 -20 -57 -23 -115 -21 l-70 3 -3 183 c-2 155 0 182 12 182 11 0 16 -15 18 -57z m362 23 c18 -44 27 -48 97 -48 65 0 95 17 101 55 2 12 11 23 22 25 32 6 38 -12 17 -54 -18 -36 -55 -146 -57 -169 0 -5 -8 -27 -17 -49 -9 -21 -17 -46 -17 -55 0 -23 -20 -41 -45 -41 -24 0 -68 37 -60 50 3 5 -1 26 -10 46 -8 20 -15 44 -15 54 0 10 -6 23 -14 30 -8 6 -13 17 -10 25 3 7 -2 29 -10 50 -9 21 -16 45 -16 55 0 10 -7 23 -15 30 -22 18 -18 30 10 30 19 0 28 -8 39 -34z m531 14 c0 -17 -69 -34 -103 -25 -16 4 -29 -1 -44 -18 -18 -20 -21 -36 -20 -122 0 -90 2 -101 22 -117 31 -25 69 -33 91 -19 28 17 49 13 49 -8 0 -29 -16 -35 -84 -32 -75 3 -116 23 -116 56 0 13 -4 27 -10 30 -12 8 -13 169 -1 193 5 9 14 29 21 44 16 33 24 35 120 34 58 -1 75 -5 75 -16z m205 -130 c0 -166 3 -173 66 -163 37 6 49 -8 34 -37 -10 -18 -21 -20 -120 -20 -99 0 -110 2 -120 20 -16 30 -2 43 40 37 68 -9 70 -4 70 163 0 127 2 150 15 150 13 0 15 -23 15 -150z m228 -30 c-4 -243 -22 -245 -26 -2 -2 159 0 182 13 182 13 0 15 -23 13 -180z m282 161 c0 -10 7 -24 15 -31 8 -7 12 -16 9 -22 -5 -8 14 -78 39 -138 5 -14 12 -38 14 -54 2 -17 10 -40 18 -52 12 -18 12 -25 1 -40 -12 -15 -16 -16 -30 -5 -9 7 -16 22 -16 33 0 11 -5 29 -12 41 -6 12 -13 29 -14 37 -4 35 -34 133 -44 145 -19 23 -62 5 -59 -23 1 -10 -1 -24 -4 -32 -22 -54 -47 -145 -43 -155 2 -7 -6 -23 -19 -35 -22 -20 -24 -21 -33 -4 -7 13 -5 31 9 66 10 27 18 52 17 56 0 4 2 14 5 22 15 36 47 140 45 147 0 5 4 20 10 36 10 23 17 27 52 27 32 0 40 -4 40 -19z m380 -7 c0 -25 -1 -25 -63 -23 -35 1 -69 -1 -76 -5 -14 -9 -13 -84 2 -103 6 -8 34 -13 73 -13 52 0 62 -3 58 -15 -5 -11 -22 -15 -63 -15 -65 0 -81 -11 -81 -55 0 -45 16 -55 88 -55 63 0 63 0 60 -27 l-3 -28 -94 -3 c-69 -2 -97 1 -103 10 -13 21 -10 332 4 346 8 8 46 12 105 12 l93 0 0 -26z m-5703 -336 c7 -5 17 -7 22 -4 5 4 12 2 15 -3 3 -4 38 -18 78 -31 40 -12 90 -28 111 -36 21 -8 42 -12 47 -9 5 3 11 1 14 -4 6 -8 97 -42 126 -46 8 -1 26 -7 40 -12 14 -6 44 -19 67 -28 23 -10 48 -15 56 -12 8 3 19 1 25 -5 14 -14 115 -48 125 -41 4 2 15 -1 23 -8 16 -13 98 -43 150 -54 37 -7 53 -23 86 -83 27 -51 30 -55 88 -150 25 -40 50 -82 56 -92 6 -11 18 -28 27 -38 10 -10 17 -24 17 -30 0 -6 28 -56 63 -111 34 -56 67 -110 73 -121 6 -11 18 -28 27 -38 10 -10 17 -24 17 -30 0 -12 102 -180 151 -247 15 -22 28 -46 29 -53 0 -11 13 -33 72 -121 10 -14 26 -44 37 -66 10 -22 51 -92 89 -155 l71 -115 -447 -3 c-246 -1 -452 0 -458 2 -7 3 -22 26 -35 53 -13 26 -35 66 -48 88 -14 22 -38 65 -53 95 -16 30 -37 69 -48 85 -10 17 -27 46 -36 65 -10 19 -28 49 -41 66 -13 17 -23 37 -23 44 0 7 -11 28 -25 46 -14 18 -25 38 -25 44 0 7 -8 24 -18 38 -10 15 -24 41 -31 59 -7 17 -21 39 -32 49 -10 9 -19 25 -19 34 0 9 -4 20 -9 25 -5 6 -29 48 -54 95 -24 47 -53 101 -64 120 -45 80 -88 157 -100 182 -8 15 -19 30 -24 34 -6 3 -24 34 -40 67 -17 34 -41 80 -54 102 -14 22 -29 51 -35 65 -5 14 -14 32 -18 40 -21 37 -61 110 -92 165 -18 33 -36 64 -41 70 -21 22 -9 37 24 30 17 -4 37 -12 44 -17z m2988 -311 c23 -2 51 -9 62 -16 12 -6 30 -11 40 -12 28 -1 135 -62 147 -84 6 -11 17 -31 25 -45 8 -14 17 -34 19 -45 9 -44 16 -327 9 -334 -4 -4 -9 -19 -11 -32 -3 -24 -36 -100 -58 -131 -11 -15 -7 -23 20 -51 17 -18 32 -40 32 -49 0 -9 5 -29 11 -45 14 -36 12 -284 -3 -338 -11 -43 -29 -83 -57 -130 -15 -25 -86 -75 -131 -91 -8 -3 -31 -12 -50 -21 -19 -8 -69 -17 -110 -20 -41 -3 -82 -9 -92 -14 -9 -5 -88 -9 -176 -9 l-159 0 -7 31 c-8 40 -8 162 0 183 5 14 31 16 178 16 248 0 265 3 327 59 l52 47 2 75 c1 58 -4 86 -22 127 -13 28 -29 52 -35 52 -6 0 -20 7 -29 16 -15 14 -41 16 -145 15 -94 -1 -130 2 -136 11 -10 17 -10 215 0 222 5 3 59 6 120 7 62 1 114 5 117 9 3 5 13 6 24 3 26 -7 88 50 97 90 14 62 9 175 -9 195 -10 10 -17 23 -17 28 0 16 -51 49 -95 61 -23 7 -120 12 -229 13 -105 0 -192 3 -195 6 -11 11 -12 160 -2 187 l11 28 217 -5 c120 -3 236 -7 258 -9z m1215 1 c25 -2 55 -9 67 -16 12 -6 28 -12 36 -12 19 0 75 -28 114 -56 17 -13 36 -24 42 -24 9 0 26 -27 58 -95 7 -16 20 -43 28 -58 12 -23 15 -103 14 -461 l0 -433 -24 -58 c-30 -75 -89 -144 -146 -171 -89 -43 -120 -54 -148 -54 -15 0 -31 -3 -35 -7 -3 -4 -28 -6 -55 -4 -27 1 -52 -2 -56 -8 -4 -7 -97 -11 -281 -11 l-274 0 0 733 c0 404 3 737 7 741 6 6 550 1 653 -6z m1196 -13 c16 -8 42 -15 57 -15 31 0 79 -20 139 -57 41 -25 121 -120 113 -133 -3 -4 2 -26 10 -49 8 -25 14 -84 15 -153 2 -110 -1 -134 -21 -170 -5 -10 -9 -27 -9 -38 0 -27 -106 -132 -155 -153 -22 -10 -52 -24 -68 -32 -15 -8 -34 -12 -42 -9 -9 4 -22 1 -30 -6 -8 -7 -22 -9 -31 -6 -9 4 -23 1 -30 -5 -8 -7 -28 -9 -48 -5 -22 4 -37 2 -42 -5 -5 -8 -30 -10 -87 -5 -75 6 -81 5 -113 -19 -48 -37 -57 -60 -60 -156 -3 -95 5 -114 65 -164 46 -39 86 -44 389 -44 l263 -1 -3 -112 -3 -113 -239 -3 c-162 -2 -243 1 -252 9 -7 6 -33 9 -58 8 -25 -2 -48 0 -52 4 -4 4 -21 7 -38 7 -17 0 -43 6 -57 14 -14 7 -39 16 -55 20 -16 4 -37 15 -47 23 -9 9 -27 21 -39 27 -27 14 -69 83 -103 171 -12 32 -9 268 4 292 6 12 11 28 11 35 0 7 14 34 30 60 34 55 104 110 170 133 25 9 52 19 60 22 8 4 19 5 24 4 4 -1 14 3 22 10 7 6 18 8 24 4 6 -4 17 -2 24 4 9 7 45 10 102 7 136 -8 217 25 248 99 7 17 12 62 11 102 -3 89 -24 130 -84 160 -36 18 -54 21 -107 16 -42 -4 -68 -2 -78 6 -10 8 -77 11 -227 11 l-214 -2 -3 111 -3 111 295 0 c241 0 299 -3 322 -15z"/>
 <path d="M7052 5734 c-18 -12 -22 -25 -22 -69 0 -30 5 -57 11 -61 6 -3 38 -7 71 -9 56 -2 60 0 71 24 21 50 17 73 -15 102 -34 33 -80 38 -116 13z"/>
 <path d="M7447 5770 c-17 -15 -18 -18 -3 -60 9 -25 16 -52 16 -61 0 -29 25 -41 42 -21 31 36 51 123 35 149 -10 16 -66 12 -90 -7z"/>
 <path d="M7137 5017 c-16 -11 -18 -50 -18 -507 0 -438 2 -495 16 -503 9 -4 82 -6 163 -4 150 5 172 7 207 22 26 11 105 92 105 108 0 6 1 183 1 392 l0 380 -57 53 c-32 29 -65 52 -73 51 -9 -1 -29 3 -44 9 -40 17 -278 16 -300 -1z"/>
 </g>
<g id="layer105" fill="#e6b3b3" stroke="none">
 <path d="M0 5120 l0 -5120 5120 0 5120 0 0 5120 0 5120 -5120 0 -5120 0 0 -5120z m1348 1228 c69 -62 144 -129 166 -148 55 -48 86 -81 86 -92 0 -5 31 -62 68 -126 38 -64 93 -160 122 -212 29 -52 61 -108 70 -125 9 -16 32 -57 50 -90 18 -33 44 -77 57 -97 12 -21 23 -40 23 -43 0 -3 11 -24 26 -46 27 -44 51 -85 95 -167 16 -28 40 -70 54 -92 14 -22 25 -42 25 -45 0 -3 11 -22 23 -43 13 -20 39 -64 57 -97 90 -163 237 -421 275 -485 18 -30 42 -71 52 -90 11 -19 35 -62 53 -94 18 -33 55 -98 81 -144 27 -47 49 -86 49 -87 0 -1 29 -53 65 -115 36 -62 65 -114 65 -116 0 -3 -87 -3 -192 -2 l-193 3 -102 205 c-56 113 -219 441 -361 730 -462 935 -723 1462 -788 1592 -35 70 -64 130 -64 133 0 13 20 -2 138 -107z m1082 -415 c47 -28 141 -83 210 -123 69 -40 137 -81 152 -91 14 -11 31 -19 36 -19 9 0 40 -47 77 -115 9 -18 168 -286 334 -565 32 -52 83 -140 116 -195 32 -55 89 -151 127 -213 37 -61 68 -114 68 -117 0 -3 23 -42 50 -88 28 -45 55 -89 60 -97 4 -8 62 -105 127 -214 65 -110 120 -204 122 -210 2 -5 14 -25 27 -44 13 -19 24 -39 24 -43 0 -5 -130 -9 -289 -9 l-289 0 -274 548 c-151 301 -396 788 -543 1082 -148 294 -277 552 -286 572 l-17 37 41 -23 c23 -13 80 -46 127 -73z m3445 -208 l0 -180 -27 -3 -28 -3 0 179 c0 98 3 182 7 186 4 4 16 6 28 4 19 -3 20 -9 20 -183z m156 68 c-3 -167 20 -164 109 15 49 98 52 102 83 102 18 0 37 -4 43 -9 5 -6 8 -84 6 -186 -3 -175 -3 -176 -25 -173 -21 3 -22 8 -25 103 -1 55 -5 106 -7 114 -11 28 -47 -14 -98 -114 l-52 -100 -42 -3 -43 -3 0 179 c0 98 3 182 7 186 4 4 16 6 26 4 18 -3 19 -11 18 -115z m461 112 c10 -4 12 -35 10 -143 -4 -158 -1 -164 71 -166 38 -1 42 -3 42 -26 l0 -25 -132 -3 -133 -3 0 31 c0 28 2 30 38 30 21 0 43 5 50 12 8 8 12 56 12 148 0 151 2 160 42 145z m403 -20 c0 -17 -8 -20 -60 -23 -75 -4 -94 -19 -86 -70 l6 -37 63 -3 c58 -3 62 -4 62 -27 0 -23 -3 -25 -54 -25 -59 0 -79 -14 -81 -56 -1 -36 18 -47 88 -48 59 -1 62 -2 62 -26 l0 -25 -105 0 -105 0 -3 170 c-1 93 0 175 3 182 3 11 29 13 107 11 95 -3 103 -4 103 -23z m146 -1 c5 -15 7 -35 3 -46 -7 -23 21 -58 47 -58 11 0 40 27 70 65 42 53 56 65 80 65 36 0 36 -7 1 -56 -37 -52 -43 -70 -28 -83 24 -20 39 -96 30 -147 -13 -67 -42 -82 -161 -83 l-93 -1 0 178 c0 98 3 182 7 185 14 15 34 6 44 -19z m363 -8 c8 -18 19 -37 26 -41 10 -6 70 -9 120 -6 6 1 18 19 27 41 13 29 24 40 40 40 12 0 24 -4 27 -9 6 -8 -10 -63 -40 -141 -8 -19 -20 -60 -28 -91 -8 -31 -19 -65 -24 -75 -6 -11 -13 -27 -16 -37 -5 -14 -14 -18 -48 -15 -36 3 -43 7 -50 33 -5 17 -13 39 -18 50 -4 11 -20 61 -35 110 -15 50 -33 105 -41 123 -20 46 -18 52 16 52 24 0 32 -6 44 -34z m521 22 c4 -4 2 -14 -3 -24 -8 -14 -21 -17 -65 -15 -49 2 -57 0 -77 -26 -20 -25 -21 -37 -18 -121 4 -116 13 -127 101 -117 l57 6 0 -31 0 -30 -70 0 c-127 0 -150 29 -150 187 0 105 16 158 52 172 26 10 163 9 173 -1z m213 -132 c1 -82 7 -145 14 -153 6 -7 28 -13 49 -13 43 0 51 -7 42 -38 -5 -21 -10 -22 -133 -22 -123 0 -128 1 -133 22 -9 31 -1 38 47 38 23 0 47 5 54 12 8 8 12 56 12 148 0 75 3 140 7 144 4 4 14 5 23 4 12 -3 15 -26 18 -142z m230 -44 l2 -182 -24 0 c-32 0 -36 18 -36 182 0 147 9 192 38 186 15 -3 17 -21 20 -186z m281 169 c6 -10 15 -36 20 -57 15 -59 28 -106 40 -141 6 -18 16 -48 22 -65 6 -18 13 -46 15 -61 3 -25 1 -28 -22 -25 -20 2 -29 12 -41 43 -18 49 -32 98 -43 149 -13 62 -70 102 -70 48 0 -15 -10 -49 -41 -147 -6 -16 -12 -41 -15 -55 -6 -27 -20 -40 -46 -40 -25 0 -23 16 17 150 28 97 36 124 46 165 12 47 22 55 71 55 26 0 40 -6 47 -19z m379 -8 c3 -22 0 -23 -68 -23 -66 0 -71 -2 -82 -25 -8 -18 -9 -35 -2 -53 9 -25 14 -27 77 -30 64 -3 67 -4 67 -27 0 -24 -3 -25 -57 -25 -62 0 -93 -18 -93 -55 0 -35 20 -45 92 -45 l68 0 0 -30 0 -30 -104 0 c-85 0 -105 3 -110 16 -8 22 -8 339 1 348 4 4 52 5 107 4 96 -3 101 -4 104 -25z m-5723 -323 c33 -10 71 -22 85 -27 43 -17 93 -34 160 -53 36 -10 85 -26 110 -35 25 -10 59 -21 75 -25 17 -5 55 -18 85 -29 30 -12 69 -24 85 -27 17 -3 34 -9 39 -15 6 -5 22 -9 37 -9 15 0 31 -4 34 -10 3 -5 14 -10 23 -10 9 0 30 -7 46 -15 15 -8 38 -15 50 -15 11 0 30 -7 40 -15 11 -8 30 -15 44 -15 13 0 35 -12 49 -27 14 -16 172 -273 350 -573 179 -300 367 -616 419 -702 52 -87 94 -160 94 -163 0 -3 -207 -5 -460 -5 l-460 0 -23 38 c-21 33 -66 114 -135 242 -13 25 -32 59 -42 75 -9 17 -33 59 -52 95 -32 58 -47 86 -108 195 -9 17 -32 57 -50 90 -18 33 -36 65 -40 70 -4 6 -31 55 -60 110 -29 55 -85 156 -123 225 -39 69 -86 154 -105 190 -20 36 -46 82 -59 102 -13 21 -23 40 -23 42 0 3 -22 44 -50 92 -27 48 -50 89 -50 91 0 2 -18 35 -40 74 -30 53 -36 69 -23 64 10 -4 45 -15 78 -25z m3085 -334 c124 -48 165 -81 202 -163 27 -60 28 -69 28 -210 0 -158 -7 -191 -55 -277 l-26 -47 23 -37 c54 -86 58 -106 58 -261 0 -133 -2 -153 -25 -210 -30 -78 -63 -122 -118 -159 -94 -64 -180 -81 -444 -89 l-223 -6 0 121 0 122 218 1 c203 1 219 2 256 22 68 38 81 65 81 171 -1 81 -4 96 -24 122 -42 54 -73 63 -213 64 -78 0 -128 4 -128 10 -1 13 -1 218 0 228 0 4 48 7 107 8 136 1 189 13 224 52 32 35 44 103 34 186 -16 122 -106 158 -391 155 l-159 -1 -3 112 -3 113 268 -5 c223 -4 276 -8 313 -22z m1120 15 c175 -19 292 -96 344 -226 l26 -66 -2 -452 -3 -452 -30 -58 c-43 -87 -92 -129 -205 -175 -68 -28 -224 -41 -516 -41 -239 -1 -273 1 -278 15 -8 20 -8 1428 0 1448 5 14 41 16 298 15 160 0 325 -4 366 -8z m1260 -20 c101 -30 135 -48 187 -99 25 -23 55 -67 68 -97 22 -48 24 -69 25 -197 2 -178 -14 -231 -93 -311 -86 -87 -219 -128 -429 -132 -121 -3 -158 -17 -191 -73 -41 -69 -22 -220 31 -258 28 -20 93 -46 109 -43 4 1 131 1 281 0 l273 -1 -3 -117 -3 -118 -285 0 c-286 0 -299 2 -435 41 -94 27 -178 109 -219 213 -22 58 -22 288 1 341 32 75 49 102 83 135 76 73 258 133 368 121 66 -7 190 20 223 50 36 33 51 83 46 155 -6 87 -22 119 -77 147 -43 21 -53 22 -337 22 l-293 0 0 120 0 121 313 -4 c221 -2 325 -7 357 -16z"/>
 <path d="M7058 5723 c-17 -20 -18 -97 -3 -112 14 -14 103 -17 115 -5 6 6 13 27 17 47 4 29 1 40 -20 61 -31 31 -86 35 -109 9z"/>
 <path d="M7453 5768 c-14 -16 -15 -23 -4 -61 31 -102 40 -105 72 -30 23 54 24 76 3 94 -23 19 -52 18 -71 -3z"/>
 <path d="M7142 5004 l-22 -15 0 -478 c0 -358 3 -480 12 -489 8 -8 59 -12 164 -12 165 0 204 9 257 58 57 54 57 50 57 447 l0 365 -25 40 c-32 50 -59 68 -132 85 -83 20 -282 20 -311 -1z"/>
 </g>
<g id="layer106" fill="#f0d1d1" stroke="none">
 <path d="M0 5120 l0 -5120 5120 0 5120 0 0 5120 0 5120 -5120 0 -5120 0 0 -5120z m1249 1320 c20 -22 42 -40 48 -40 6 0 21 -13 33 -30 12 -16 28 -30 35 -30 8 0 29 -18 46 -40 18 -22 38 -40 45 -40 14 0 154 -136 154 -151 0 -5 11 -27 25 -49 14 -22 25 -44 25 -50 0 -6 11 -26 24 -43 22 -30 48 -74 102 -176 13 -24 28 -49 33 -55 9 -12 47 -79 91 -161 14 -27 38 -69 53 -92 15 -24 27 -45 27 -48 0 -3 11 -23 25 -45 14 -22 25 -46 25 -54 0 -8 6 -19 13 -23 6 -4 17 -17 23 -28 63 -116 78 -141 85 -149 5 -6 9 -18 9 -28 0 -10 7 -21 15 -24 8 -4 15 -13 15 -21 0 -8 11 -29 25 -47 14 -18 25 -38 25 -45 0 -7 11 -27 24 -44 25 -33 73 -116 103 -177 9 -19 23 -42 29 -50 7 -8 25 -40 41 -70 16 -30 41 -74 56 -97 15 -24 27 -45 27 -48 0 -3 11 -23 25 -45 14 -22 25 -44 25 -50 0 -6 11 -26 24 -43 13 -18 38 -59 56 -92 18 -33 36 -64 41 -69 5 -6 9 -16 9 -24 0 -7 11 -28 24 -45 14 -18 29 -43 35 -57 6 -14 23 -43 36 -65 14 -22 28 -47 31 -55 6 -17 10 -23 47 -78 15 -23 28 -52 30 -64 2 -23 2 -23 -173 -26 -96 -1 -185 0 -196 3 -16 3 -51 64 -144 252 -67 137 -186 376 -264 533 -78 157 -145 294 -149 305 -3 11 -13 31 -21 45 -8 14 -21 39 -29 55 -7 17 -18 39 -25 50 -6 11 -17 34 -25 50 -7 17 -19 39 -25 50 -6 11 -24 47 -40 80 -16 33 -33 69 -39 80 -7 11 -18 34 -26 50 -7 17 -18 39 -24 50 -6 11 -87 173 -179 360 -92 187 -204 416 -250 508 -46 92 -84 174 -84 181 0 8 -7 19 -15 26 -8 7 -15 16 -15 21 0 20 24 7 59 -31z m1166 -489 c22 -14 51 -31 65 -38 48 -25 118 -68 137 -85 11 -10 25 -18 31 -18 6 0 38 -17 72 -37 34 -21 77 -47 95 -58 28 -16 95 -102 95 -120 0 -3 25 -45 55 -94 30 -49 58 -97 62 -107 4 -10 24 -45 46 -77 21 -32 45 -73 52 -91 8 -18 21 -38 29 -46 9 -7 16 -16 16 -21 0 -5 23 -45 50 -89 28 -44 50 -87 50 -95 0 -9 7 -18 15 -21 8 -4 15 -10 15 -14 0 -5 23 -45 50 -90 28 -45 55 -91 61 -103 5 -12 17 -34 27 -49 52 -81 92 -151 92 -162 0 -7 9 -21 20 -31 11 -10 20 -22 20 -26 0 -4 14 -28 30 -52 17 -25 30 -52 30 -60 0 -9 6 -20 13 -24 8 -4 20 -20 28 -35 8 -15 34 -60 59 -100 67 -109 69 -112 76 -128 4 -8 28 -49 53 -90 26 -41 53 -88 61 -105 8 -16 23 -42 34 -57 10 -15 16 -34 13 -42 -6 -14 -41 -16 -287 -16 -255 0 -282 2 -298 18 -17 17 -562 1098 -562 1115 0 5 -11 23 -24 40 -13 18 -27 43 -31 57 -4 14 -15 36 -25 50 -10 14 -21 36 -25 50 -4 14 -15 36 -24 50 -9 14 -27 48 -39 75 -13 28 -28 59 -34 70 -7 11 -18 34 -25 50 -8 17 -18 38 -24 48 -5 9 -13 25 -18 35 -6 9 -16 31 -24 47 -24 48 -128 258 -138 278 -5 9 -13 25 -18 35 -9 16 -22 42 -58 117 -8 17 -19 39 -25 50 -30 53 -37 69 -32 77 5 8 81 -31 159 -81z m3465 -221 l0 -190 -29 0 c-21 0 -30 6 -35 23 -8 29 -8 321 0 341 4 10 18 16 35 16 l29 0 0 -190z m165 168 c3 -13 6 -59 7 -103 2 -59 7 -80 16 -80 8 0 37 45 65 100 46 88 55 100 81 103 15 2 39 1 52 -2 l24 -6 -2 -183 -3 -182 -35 -3 -35 -3 3 88 c3 77 1 90 -16 106 -19 17 -20 17 -34 -5 -8 -13 -19 -34 -23 -48 -4 -14 -15 -36 -25 -50 -9 -14 -22 -40 -29 -57 -13 -31 -16 -33 -65 -33 l-51 0 2 187 c1 104 3 189 3 191 0 1 13 2 30 2 23 0 31 -5 35 -22z m459 16 c14 -5 16 -28 16 -148 0 -97 4 -146 12 -154 7 -7 29 -12 50 -12 36 0 38 -2 38 -30 l0 -30 -139 0 c-131 0 -140 1 -146 20 -10 30 2 40 49 40 25 0 48 6 55 14 8 10 12 60 11 153 -1 76 -1 141 0 146 0 9 32 9 54 1z m396 -9 c6 -8 9 -22 6 -33 -5 -16 -14 -18 -64 -14 -48 3 -60 1 -75 -16 -11 -12 -17 -31 -15 -49 3 -27 6 -28 67 -33 63 -5 64 -6 67 -36 l4 -31 -51 5 c-56 5 -89 -14 -89 -53 0 -35 20 -45 93 -45 l68 0 -3 -27 -3 -28 -115 -3 -115 -3 2 188 c2 103 3 189 3 191 0 1 47 2 104 2 78 0 106 -4 116 -15z m147 4 c7 -7 10 -24 7 -38 -3 -14 -1 -39 5 -54 9 -23 16 -28 38 -25 15 2 32 12 38 23 14 29 57 89 70 97 5 4 25 8 43 8 25 0 32 -4 32 -20 0 -10 -9 -24 -20 -30 -11 -6 -20 -18 -20 -27 0 -9 -7 -25 -17 -35 -14 -16 -14 -20 -1 -35 38 -46 47 -105 26 -171 -16 -52 -42 -62 -164 -62 -84 0 -103 3 -108 16 -12 31 -7 339 6 352 15 15 51 15 65 1z m369 -34 c19 -38 23 -40 72 -43 l52 -3 27 45 c23 37 33 46 56 46 27 0 28 -2 23 -37 -6 -47 -28 -123 -41 -143 -5 -8 -9 -22 -10 -30 0 -8 -11 -50 -25 -92 l-25 -78 -58 0 c-41 0 -57 4 -56 13 1 6 -3 26 -10 42 -7 17 -14 39 -15 50 -1 11 -8 31 -15 43 -7 13 -10 26 -7 29 3 3 -4 23 -15 45 -11 22 -18 45 -16 52 3 6 -1 20 -9 31 -8 10 -14 32 -14 48 0 26 3 28 32 25 27 -2 37 -10 54 -43z m493 35 c22 -11 25 -59 4 -67 -8 -3 -19 -1 -26 6 -6 6 -26 11 -43 11 -26 0 -39 -8 -58 -33 -22 -29 -26 -44 -26 -102 0 -58 4 -73 26 -102 26 -34 27 -35 83 -28 l58 7 0 -30 c0 -25 -5 -31 -30 -36 -52 -11 -118 -6 -151 9 -44 21 -56 61 -56 187 0 99 2 107 28 141 15 20 32 35 38 33 6 -2 17 0 25 5 19 12 106 11 128 -1z m239 -3 c7 -8 13 -72 14 -158 l3 -144 48 -3 c46 -3 48 -4 45 -30 l-3 -27 -137 -3 c-76 -1 -138 1 -138 5 0 4 -3 18 -6 31 -6 20 -3 22 39 22 25 0 49 5 52 11 4 6 6 71 6 146 -1 90 2 140 10 149 14 18 53 18 67 1z m230 1 c13 -13 18 -321 6 -352 -10 -26 -61 -21 -67 7 -9 33 -11 333 -3 346 9 15 49 14 64 -1z m279 -10 c4 -13 8 -27 9 -33 0 -5 7 -23 13 -40 7 -16 14 -42 15 -57 1 -15 7 -33 14 -40 6 -6 12 -20 12 -30 0 -10 6 -35 14 -55 8 -21 17 -53 20 -70 5 -32 4 -33 -29 -33 -30 0 -37 5 -50 36 -8 19 -14 38 -13 42 1 4 -6 28 -16 55 -11 26 -16 50 -13 54 4 3 -3 19 -15 35 -18 26 -22 28 -36 15 -8 -9 -15 -24 -16 -34 -3 -24 -24 -100 -39 -138 -6 -16 -12 -37 -12 -45 0 -11 -12 -15 -42 -16 -47 -1 -50 2 -29 31 8 11 12 24 9 31 -2 6 3 29 12 50 9 22 18 48 20 59 6 36 32 121 43 142 6 11 9 23 5 26 -16 16 22 37 68 37 40 0 49 -3 56 -22z m378 -12 l0 -30 -59 3 c-49 2 -62 -1 -82 -20 -50 -47 -26 -77 65 -81 63 -3 64 -3 66 -34 l2 -30 -59 4 c-65 5 -98 -13 -98 -53 0 -35 20 -45 92 -45 52 0 68 -3 68 -14 0 -8 3 -21 6 -30 5 -14 -8 -16 -110 -16 l-116 0 0 190 0 191 113 -3 112 -3 0 -29z m-5789 -294 c5 -4 36 -16 69 -26 94 -29 169 -57 181 -67 6 -5 18 -7 26 -4 8 3 28 -1 44 -10 16 -8 36 -15 44 -15 9 0 25 -7 36 -15 12 -8 23 -12 26 -10 2 2 56 -14 119 -36 62 -22 121 -41 129 -42 17 -3 86 -25 115 -37 11 -4 65 -22 119 -39 83 -26 105 -38 132 -69 18 -20 33 -40 34 -44 0 -4 18 -37 40 -73 22 -36 40 -71 40 -78 0 -6 12 -23 25 -36 14 -13 25 -27 25 -32 0 -5 23 -45 50 -89 28 -44 50 -87 50 -95 0 -9 6 -18 14 -21 8 -3 22 -20 31 -37 8 -18 20 -39 25 -47 69 -111 160 -263 160 -270 0 -4 7 -13 15 -20 8 -7 15 -20 15 -30 0 -10 6 -23 14 -29 17 -14 86 -128 86 -142 0 -5 12 -28 28 -51 65 -99 122 -190 122 -198 0 -4 7 -13 15 -20 8 -7 15 -19 15 -27 0 -8 11 -29 25 -47 53 -70 76 -66 -429 -66 -250 0 -461 3 -470 6 -9 3 -16 11 -16 17 0 6 -6 18 -14 26 -8 9 -23 32 -33 51 -42 75 -87 156 -103 185 -9 17 -32 57 -50 90 -18 33 -41 74 -50 90 -68 121 -80 145 -80 155 0 5 -13 29 -30 52 -16 22 -30 46 -30 52 0 6 -9 22 -20 36 -11 14 -20 33 -20 42 0 9 -6 21 -12 25 -7 4 -18 17 -24 28 -6 11 -23 43 -39 70 -15 28 -46 84 -67 125 -22 41 -43 79 -47 85 -17 21 -71 124 -71 135 0 6 -11 26 -25 44 -14 18 -25 38 -25 45 0 7 -11 27 -25 45 -14 18 -25 39 -25 46 0 7 -6 21 -14 29 -13 15 -26 37 -78 131 -11 19 -27 49 -37 65 -47 81 -71 127 -71 140 0 16 20 20 36 7z m3079 -348 c22 -4 45 -8 50 -8 39 -6 95 -29 110 -46 10 -11 22 -20 26 -20 15 0 89 -84 85 -97 -3 -6 2 -17 10 -24 8 -7 13 -18 10 -25 -3 -7 -1 -16 4 -19 6 -4 10 -67 10 -144 0 -156 -14 -217 -64 -289 l-30 -42 26 -28 c55 -58 63 -94 63 -262 -1 -162 -5 -201 -24 -223 -6 -8 -8 -16 -5 -19 10 -10 -43 -84 -86 -121 -47 -40 -122 -78 -160 -82 -14 -1 -36 -7 -50 -12 -14 -5 -131 -10 -260 -12 l-235 -3 0 119 c0 67 4 121 10 126 6 4 100 7 210 6 135 -1 208 2 222 10 12 6 30 11 39 11 26 0 64 40 64 66 0 13 5 26 10 29 16 10 12 98 -6 141 -18 43 -51 84 -69 84 -6 0 -16 5 -22 11 -8 8 -59 12 -138 13 l-127 1 -1 133 -2 133 127 -2 c115 -1 132 1 175 23 50 24 57 38 70 132 10 73 -34 159 -97 190 -17 8 -95 13 -235 15 -115 2 -213 6 -217 9 -3 4 -8 59 -10 122 l-3 115 240 -2 c132 -1 258 -5 280 -9z m1155 6 c3 -1 25 -4 50 -6 77 -8 119 -19 170 -44 42 -22 130 -101 130 -117 0 -7 11 -28 24 -48 14 -20 26 -48 27 -63 5 -53 2 -888 -3 -918 -6 -42 -46 -121 -63 -128 -8 -3 -15 -12 -15 -21 0 -26 -172 -122 -206 -114 -5 1 -20 -2 -34 -8 -15 -6 -171 -11 -372 -12 l-348 -3 0 740 c0 406 2 741 4 743 4 4 623 2 636 -1z m1287 -22 c15 -6 33 -10 39 -10 39 7 167 -85 201 -143 38 -66 54 -112 48 -142 -3 -17 -1 -34 5 -38 13 -8 13 -152 0 -160 -5 -3 -7 -18 -4 -33 12 -61 -106 -242 -158 -242 -9 0 -20 -4 -23 -10 -13 -21 -157 -66 -175 -55 -5 3 -12 0 -15 -6 -5 -7 -47 -10 -119 -9 -63 2 -123 -2 -139 -9 -16 -6 -34 -11 -41 -11 -21 0 -43 -32 -51 -75 -4 -22 -9 -44 -13 -49 -9 -15 -6 -58 7 -89 6 -16 11 -34 11 -41 0 -15 52 -66 67 -66 7 0 24 -5 39 -10 16 -7 141 -12 303 -13 l276 -2 3 -123 3 -124 -308 3 c-173 1 -319 7 -333 12 -14 6 -31 9 -38 8 -13 -2 -65 19 -117 47 -42 23 -125 111 -143 152 -21 48 -23 67 -23 210 0 141 2 160 25 212 31 71 155 179 211 183 6 1 31 9 58 19 38 15 65 18 136 14 49 -3 93 -2 98 3 5 5 29 10 54 13 57 5 125 40 134 69 4 12 9 59 10 105 2 79 1 84 -29 116 -56 61 -84 66 -388 66 -246 0 -272 2 -284 18 -14 18 -20 202 -7 215 12 13 649 8 680 -5z"/>
 <path d="M7064 5725 c-2 -5 -8 -30 -13 -55 -12 -56 -2 -70 55 -70 36 0 46 5 65 31 19 27 20 33 8 56 -20 37 -106 65 -115 38z"/>
 <path d="M7446 5761 c-3 -5 1 -23 10 -40 8 -17 12 -35 9 -41 -4 -6 -1 -17 5 -26 15 -17 40 -2 40 25 0 9 7 27 16 39 24 34 11 52 -35 52 -22 0 -42 -4 -45 -9z"/>
 <path d="M7294 5002 c-122 -2 -144 -5 -158 -21 -15 -16 -16 -64 -14 -487 l3 -469 160 0 c88 0 178 3 199 7 45 8 76 39 107 107 18 41 19 63 16 385 -3 398 -4 403 -83 447 -63 35 -64 35 -230 31z"/>
 </g>
<g id="layer107" fill="#ffffff" stroke="none">
 <path d="M0 5120 l0 -5120 5120 0 5120 0 0 5120 0 5120 -5120 0 -5120 0 0 -5120z m1220 1358 c13 -13 34 -30 46 -38 12 -8 48 -40 81 -70 32 -30 100 -89 149 -131 50 -42 98 -92 108 -110 10 -19 23 -43 29 -54 27 -45 111 -193 132 -231 13 -22 35 -59 49 -82 14 -23 26 -44 26 -47 0 -3 11 -22 23 -43 13 -20 35 -57 49 -82 13 -25 40 -72 58 -105 18 -33 41 -73 51 -90 10 -16 28 -48 39 -70 11 -22 34 -62 51 -90 16 -27 34 -59 40 -70 10 -20 31 -58 98 -172 37 -64 63 -109 93 -163 11 -19 27 -48 37 -65 10 -16 33 -57 51 -90 18 -33 36 -64 40 -70 4 -5 22 -37 40 -70 18 -33 42 -76 53 -95 11 -19 28 -51 39 -70 11 -19 27 -48 37 -65 10 -16 33 -57 51 -90 60 -108 69 -123 93 -162 20 -32 54 -91 101 -178 6 -11 16 -27 22 -35 6 -8 14 -27 18 -42 l6 -28 -204 0 -204 0 -20 39 c-12 22 -26 50 -33 63 -7 13 -16 30 -20 38 -11 19 -35 71 -43 90 -3 8 -10 22 -15 30 -5 8 -17 31 -25 50 -9 19 -21 42 -26 50 -5 8 -84 168 -176 355 -273 557 -476 969 -483 985 -9 18 -41 79 -52 100 -5 8 -16 31 -25 50 -8 19 -20 42 -24 50 -5 8 -23 44 -40 80 -17 36 -39 79 -48 95 -8 17 -19 38 -24 48 -4 9 -12 25 -16 35 -11 22 -42 83 -53 102 -5 8 -12 22 -15 30 -3 8 -51 105 -105 215 -55 110 -99 206 -99 213 0 18 13 15 40 -10z m1100 -463 c22 -14 42 -25 44 -25 3 0 40 -21 83 -47 112 -69 116 -71 133 -79 8 -4 50 -29 92 -56 43 -26 80 -48 83 -48 13 0 115 -71 115 -80 0 -8 16 -36 77 -135 7 -11 20 -34 29 -52 9 -18 22 -37 30 -44 8 -6 14 -15 14 -20 0 -5 23 -46 50 -90 28 -44 50 -83 50 -85 0 -2 29 -52 65 -109 36 -58 65 -108 65 -110 0 -3 22 -40 48 -83 26 -42 51 -84 55 -92 9 -17 12 -22 80 -133 26 -43 47 -80 47 -83 0 -3 11 -20 25 -38 14 -18 25 -36 25 -39 0 -4 18 -36 40 -72 22 -36 40 -68 40 -70 0 -3 23 -41 50 -85 28 -44 50 -84 50 -89 0 -5 6 -14 14 -20 8 -7 22 -26 31 -44 8 -18 25 -48 37 -67 11 -19 28 -49 37 -65 9 -17 26 -44 39 -62 12 -17 22 -34 22 -37 0 -3 18 -35 40 -71 22 -35 42 -76 46 -90 l6 -25 -301 0 -301 0 -25 40 c-14 22 -25 46 -25 54 0 8 -4 17 -9 20 -5 3 -34 59 -66 123 -31 65 -60 125 -64 133 -12 24 -43 84 -52 100 -5 8 -16 31 -25 50 -8 19 -20 42 -24 50 -5 8 -34 67 -65 130 -69 142 -77 157 -116 230 -77 145 -659 1319 -659 1328 0 19 27 14 70 -13z m3568 -287 l2 -198 -40 0 -40 0 0 193 c0 107 3 197 7 201 4 4 21 6 38 4 l30 -3 3 -197z m160 189 c6 -7 12 -51 14 -97 2 -47 7 -84 13 -84 5 1 30 42 54 90 25 49 50 92 56 96 5 4 29 8 52 8 32 0 45 -5 53 -19 11 -22 14 -224 4 -320 l-7 -61 -43 0 -43 0 -3 95 c-2 53 -7 96 -13 96 -5 1 -32 -42 -58 -95 l-49 -96 -53 0 c-51 0 -53 1 -59 31 -10 52 -7 329 4 350 12 22 62 26 78 6z m469 1 c4 -7 10 -78 13 -158 l5 -145 45 -5 c44 -5 45 -6 48 -42 l3 -38 -151 0 -151 0 3 38 c3 36 4 37 48 42 l45 5 3 150 c2 104 6 152 15 157 19 12 65 9 74 -4z m391 -35 l3 -42 -73 -3 -73 -3 0 -35 0 -35 68 -3 67 -3 0 -34 c0 -38 -8 -43 -90 -47 -43 -3 -45 -5 -45 -33 l0 -30 73 -3 72 -3 0 -39 0 -40 -125 0 -125 0 0 194 c0 146 3 196 13 200 6 2 62 4 122 3 l110 -2 3 -42z m150 -8 c3 -49 15 -75 34 -75 14 0 78 71 78 86 0 21 42 44 82 44 48 0 49 -13 3 -84 l-35 -55 25 -43 c28 -49 32 -100 10 -151 -25 -59 -45 -67 -172 -67 l-113 0 0 193 c0 107 3 197 7 201 4 4 23 6 43 4 34 -3 35 -4 38 -53z m344 42 c9 -7 18 -26 20 -42 3 -29 5 -30 59 -33 l57 -3 26 46 c22 36 32 45 54 45 42 0 51 -15 38 -60 -6 -21 -15 -42 -19 -46 -4 -4 -7 -19 -7 -33 -1 -14 -7 -37 -15 -51 -8 -14 -14 -37 -15 -52 0 -15 -4 -30 -10 -33 -5 -3 -10 -14 -10 -23 0 -9 -8 -36 -17 -59 l-18 -43 -57 0 -56 0 -17 58 c-9 31 -23 73 -30 92 -23 65 -35 106 -35 126 0 10 -7 28 -15 38 -15 20 -20 67 -8 79 11 11 57 7 75 -6z m513 1 c25 -11 33 -40 17 -65 -4 -7 -37 -13 -77 -15 l-70 -3 0 -110 0 -110 70 -3 c38 -2 75 -8 82 -14 9 -7 17 -7 26 0 7 6 33 12 57 14 l45 3 5 155 5 155 40 0 40 0 5 -155 5 -155 42 -3 c49 -4 66 -20 57 -56 l-6 -26 -142 0 c-97 0 -146 4 -154 12 -9 9 -15 9 -24 0 -8 -8 -46 -12 -103 -12 -82 0 -94 2 -112 23 -37 40 -43 64 -43 175 0 97 3 113 23 142 12 18 38 39 57 46 45 16 122 17 155 2z m473 -190 l2 -198 -45 0 -45 0 0 193 c0 107 3 197 7 201 4 4 23 6 43 4 l35 -3 3 -197z m276 170 c21 -50 36 -102 36 -124 0 -11 7 -29 15 -40 8 -10 15 -28 15 -39 0 -11 6 -38 14 -60 7 -22 16 -55 19 -72 l7 -33 -44 0 -43 0 -18 58 c-9 31 -21 65 -26 74 -5 10 -9 29 -9 42 0 13 -9 34 -19 47 l-19 24 -11 -28 c-6 -16 -11 -34 -11 -42 0 -8 -4 -17 -10 -20 -5 -3 -10 -16 -10 -28 0 -12 -9 -44 -19 -72 -18 -48 -21 -50 -60 -53 -31 -2 -41 0 -41 12 0 24 30 130 87 311 22 69 29 75 84 75 46 0 50 -2 63 -32z m381 -13 l0 -40 -71 -3 c-57 -2 -75 -7 -90 -23 -32 -35 -8 -53 77 -59 68 -5 74 -7 77 -28 6 -39 -14 -52 -83 -52 -70 0 -98 -17 -78 -48 7 -13 30 -18 89 -22 l79 -5 0 -35 0 -35 -117 -3 -118 -3 0 201 0 201 118 -3 117 -3 0 -40z m-5792 -288 c18 -8 57 -22 87 -31 30 -10 64 -21 75 -26 11 -4 47 -16 80 -25 33 -10 69 -21 80 -26 11 -4 29 -10 40 -12 11 -3 36 -11 55 -18 19 -6 44 -15 55 -19 11 -4 36 -13 55 -20 19 -7 47 -15 63 -17 15 -3 30 -9 33 -14 3 -5 15 -9 27 -9 12 0 35 -7 51 -15 15 -8 38 -15 50 -15 11 0 30 -7 40 -15 11 -8 32 -15 47 -15 15 0 31 -4 34 -10 3 -5 16 -10 29 -10 12 0 31 -7 42 -15 10 -8 31 -15 46 -15 21 0 33 -12 65 -62 22 -35 42 -70 46 -78 4 -8 13 -24 19 -35 28 -44 75 -121 82 -135 10 -22 28 -52 52 -85 11 -17 24 -37 27 -45 4 -8 13 -24 19 -34 44 -68 78 -126 78 -134 0 -5 6 -15 14 -21 8 -7 22 -26 31 -44 20 -40 24 -46 110 -187 38 -63 75 -124 82 -135 7 -11 15 -27 19 -35 4 -8 28 -49 54 -90 26 -41 49 -82 53 -90 4 -8 11 -22 17 -30 52 -79 131 -216 136 -236 l6 -24 -478 2 -479 3 -21 40 c-18 35 -43 81 -104 190 -21 38 -57 103 -100 180 -18 33 -41 74 -51 90 -10 17 -32 59 -50 95 -18 36 -47 88 -65 115 -17 28 -41 70 -53 95 -12 25 -35 68 -51 95 -17 28 -39 68 -50 90 -12 22 -29 54 -39 70 -10 17 -33 57 -51 90 -18 33 -42 76 -53 95 -11 19 -40 73 -65 120 -25 47 -54 99 -64 115 -9 17 -27 48 -38 70 -11 22 -29 54 -39 70 -10 17 -33 57 -51 90 -18 33 -38 67 -43 76 -10 16 -4 49 9 49 3 0 20 -6 37 -13z m3092 -345 c134 -27 207 -77 259 -175 25 -46 26 -55 26 -220 0 -184 -9 -228 -56 -293 l-23 -32 21 -27 c54 -69 58 -88 58 -276 0 -175 0 -178 -29 -241 -17 -35 -49 -81 -73 -104 -47 -45 -138 -94 -172 -94 -12 0 -28 -6 -34 -12 -10 -10 -78 -13 -270 -13 l-257 0 -3 127 -3 127 203 4 c236 5 287 13 328 52 29 28 30 32 30 118 0 103 -15 134 -80 167 -33 17 -59 20 -164 20 l-125 0 -7 34 c-11 63 -1 226 16 236 8 5 77 10 152 10 l137 0 36 35 c35 36 35 36 35 126 0 76 -3 95 -20 116 -40 52 -60 56 -285 60 -115 2 -220 6 -232 9 -22 4 -23 8 -23 128 0 67 3 126 7 130 11 10 490 0 548 -12z m1177 7 c208 -32 328 -130 367 -301 15 -65 15 -819 0 -890 -17 -77 -45 -132 -93 -178 -45 -44 -139 -99 -171 -100 -11 0 -38 -7 -60 -15 -32 -11 -110 -14 -382 -15 l-343 0 0 755 0 755 305 0 c174 0 336 -5 377 -11z m1263 -25 c91 -30 154 -65 194 -109 71 -77 94 -154 94 -310 -1 -149 -29 -236 -102 -311 -43 -44 -156 -104 -195 -104 -14 0 -28 -4 -31 -10 -4 -6 -61 -10 -138 -10 -105 0 -142 -4 -181 -19 -76 -29 -86 -46 -86 -157 0 -89 2 -95 28 -125 40 -45 86 -52 400 -56 l272 -4 0 -129 0 -130 -307 0 c-242 1 -317 4 -348 15 -22 8 -47 15 -56 15 -38 0 -138 61 -185 112 -74 82 -89 133 -89 303 0 113 4 147 18 174 9 19 17 40 17 47 0 7 25 40 55 72 53 58 142 112 183 112 10 0 22 4 28 9 5 5 59 12 119 15 166 8 238 25 277 64 32 32 33 34 33 122 -1 84 -3 92 -27 117 -49 48 -80 53 -385 53 -269 0 -283 1 -293 19 -11 21 -14 224 -3 234 3 4 153 7 332 7 275 0 334 -2 376 -16z"/>
 <path d="M7071 5706 c-7 -8 -11 -32 -9 -53 l3 -38 50 0 50 0 3 43 c3 38 0 43 -23 52 -37 14 -60 12 -74 -4z"/>
 <path d="M7466 5752 c-8 -13 9 -65 22 -70 14 -4 35 45 28 65 -6 14 -42 18 -50 5z"/>
 <path d="M7149 4984 c-5 -7 -8 -206 -7 -485 l3 -474 140 1 c166 1 216 11 258 52 54 52 57 79 57 445 0 290 -2 338 -16 368 -43 88 -69 98 -267 101 -108 2 -162 -1 -168 -8z"/>
 </g>

</svg>